<svg height="511pt" viewBox="0 -46 511.99799 511" width="511pt" xmlns="http://www.w3.org/2000/svg"><path d="m443.78125 410.195312h-375.554688c-14.144531 0-25.605468-11.464843-25.605468-25.605468 0-14.144532 11.460937-25.605469 25.605468-25.605469h375.554688c14.140625 0 25.605469 11.460937 25.605469 25.605469 0 14.140625-11.464844 25.605468-25.605469 25.605468zm0 0" fill="#7383bf"/><path d="m328.261719 205.492188-66.546875-49.359376c-3.75-2.621093-7.71875-2.714843-11.414063 0l-66.550781 49.359376c-4.230469 3.140624-5.921875 8.695312-3.328125 13.671874 1.273437 2.449219 3.3125 3.253907 5.839844 3.253907h139.484375c2.527344 0 4.566406-.804688 5.847656-3.253907 2.585938-4.964843.902344-10.53125-3.332031-13.671874zm0 0" fill="#7383bf"/><g fill="#4d007e"><path d="m256.003906 162.671875c-4.710937 0-8.535156-3.824219-8.535156-8.535156v-42.679688c0-4.710937 3.824219-8.535156 8.535156-8.535156 23.53125 0 42.675782-19.144531 42.675782-42.675781s-19.144532-42.675782-42.675782-42.675782-42.675781 19.144532-42.675781 42.675782c0 4.710937-3.824219 8.535156-8.535156 8.535156-4.714844 0-8.535157-3.824219-8.535157-8.535156 0-32.945313 26.800782-59.746094 59.746094-59.746094 32.945313 0 59.746094 26.800781 59.746094 59.746094 0 30.054687-22.292969 54.984375-51.210938 59.140625v34.75c0 4.710937-3.824218 8.535156-8.535156 8.535156zm0 0"/><path d="m443.78125 418.730469h-375.554688c-18.828124 0-34.140624-15.3125-34.140624-34.140625 0-18.832032 15.3125-34.140625 34.140624-34.140625h375.554688c18.828125 0 34.140625 15.308593 34.140625 34.140625 0 18.828125-15.320313 34.140625-34.140625 34.140625zm-375.554688-51.210938c-9.414062 0-17.070312 7.65625-17.070312 17.070313 0 9.414062 7.65625 17.070312 17.070312 17.070312h375.554688c9.414062 0 17.070312-7.65625 17.070312-17.070312 0-9.414063-7.65625-17.070313-17.070312-17.070313zm0 0"/><path d="m325.746094 230.953125h-139.484375c-8.109375 0-11.882813-4.90625-13.410157-7.835937-4.394531-8.433594-1.953124-18.726563 5.8125-24.480469l66.550782-49.359375c6.605468-4.847656 14.578125-4.890625 21.390625-.144532l66.738281 49.496094c7.765625 5.753906 10.207031 16.046875 5.8125 24.480469-1.53125 2.9375-5.300781 7.84375-13.410156 7.84375zm-137.992188-17.078125 136.496094.007812c-.144531-.75-.730469-1.28125-1.066406-1.527343l-66.546875-49.359375c-.421875-.285156-.71875-.324219-.71875-.324219l-67.085938 49.683594c-.335937.246093-.921875.777343-1.078125 1.519531zm0 0"/><path d="m480.722656 393.125h-11.335937c-4.710938 0-8.535157-3.824219-8.535157-8.535156 0-9.414063-7.65625-17.070313-17.070312-17.070313h-375.554688c-9.414062 0-17.070312 7.65625-17.070312 17.070313 0 4.710937-3.824219 8.535156-8.535156 8.535156h-11.34375c-10.617188 0-20.179688-6.027344-26.230469-16.527344-10.308594-17.90625-4.316406-42.128906 13.359375-54l160.34375-107.757812c2.277344-1.539063 5.15625-1.871094 7.722656-.921875l139.273438-.035157c2.570312-.949218 5.230468-.5625 7.5.964844l160.347656 107.757813c17.675781 11.871093 23.667969 36.09375 13.355469 54.003906-6.042969 10.488281-15.601563 16.515625-26.226563 16.515625zm-3.886718-17.070312h3.886718c5.957032 0 9.71875-4.996094 11.4375-7.972657 5.921875-10.292969 2.304688-24.34375-8.085937-31.316406l-157.492188-105.839844c-.28125.019531-.5625.027344-.835937.027344h-139.484375c-.28125 0-.554688-.007813-.835938-.015625l-157.496093 105.835938c-10.386719 6.972656-14.015626 21.023437-8.082032 31.316406 1.707032 2.96875 5.472656 7.964844 11.429688 7.964844h3.882812c3.796875-14.707032 17.183594-25.605469 33.066406-25.605469h375.554688c15.875 0 29.257812 10.898437 33.054688 25.605469zm0 0"/></g></svg>